<svg xmlns="http://www.w3.org/2000/svg">
    <defs>
        <g id="check"><path d="M413.505 91.951L133.49 371.966l-98.995-98.995c-4.686-4.686-12.284-4.686-16.971 0L6.211 284.284c-4.686 4.686-4.686 12.284 0 16.971l118.794 118.794c4.686 4.686 12.284 4.686 16.971 0l299.813-299.813c4.686-4.686 4.686-12.284 0-16.971l-11.314-11.314c-4.686-4.686-12.284-4.686-16.97 0z"/></g>
        <g id="cancel"><path d="M193.94 256L296.5 153.44l21.15-21.15c3.12-3.12 3.12-8.19 0-11.31l-22.63-22.63c-3.12-3.12-8.19-3.12-11.31 0L160 222.06 36.29 98.34c-3.12-3.12-8.19-3.12-11.31 0L2.34 120.97c-3.12 3.12-3.12 8.19 0 11.31L126.06 256 2.34 379.71c-3.12 3.12-3.12 8.19 0 11.31l22.63 22.63c3.12 3.12 8.19 3.12 11.31 0L160 289.94 262.56 392.5l21.15 21.15c3.12 3.12 8.19 3.12 11.31 0l22.63-22.63c3.12-3.12 3.12-8.19 0-11.31L193.94 256z"/></g>
        <g id="edit"><path d="M493.25 56.26l-37.51-37.51C443.25 6.25 426.87 0 410.49 0s-32.76 6.25-45.26 18.74L12.85 371.12.15 485.34C-1.45 499.72 9.88 512 23.95 512c.89 0 1.78-.05 2.69-.15l114.14-12.61 352.48-352.48c24.99-24.99 24.99-65.51-.01-90.5zM126.09 468.68l-93.03 10.31 10.36-93.17 263.89-263.89 82.77 82.77-263.99 263.98zm344.54-344.54l-57.93 57.93-82.77-82.77 57.93-57.93c6.04-6.04 14.08-9.37 22.63-9.37 8.55 0 16.58 3.33 22.63 9.37l37.51 37.51c12.47 12.48 12.47 32.78 0 45.26z"/></g>
   </defs>
</svg>
